<svg width="170" height="133" viewBox="0 0 170 133" fill="none" xmlns="http://www.w3.org/2000/svg">
<path opacity="0.2" fill-rule="evenodd" clip-rule="evenodd" d="M66.5 133C103.227 133 133 103.227 133 66.5C133 29.7731 103.227 0 66.5 0C29.7731 0 0 29.7731 0 66.5C0 103.227 29.7731 133 66.5 133Z" fill="#E75A7C"/>
<path d="M166.797 56.5809C166.992 56.4683 167.154 56.3061 167.266 56.1109C167.379 55.9156 167.438 55.6942 167.438 55.4688V45.2188C167.438 44.9935 167.379 44.772 167.266 44.5768C167.154 44.3815 166.992 44.2194 166.797 44.1067L157.828 38.9817C157.635 38.8711 157.416 38.813 157.193 38.813C156.97 38.813 156.751 38.8711 156.557 38.9817L147.588 44.1067C147.391 44.2181 147.227 44.3796 147.113 44.575C146.999 44.7703 146.938 44.9925 146.938 45.2188V48.2708L139.25 44.427V34.9688C139.25 34.7435 139.191 34.522 139.079 34.3268C138.967 34.1315 138.805 33.9694 138.609 33.8567L129.641 28.7317C129.447 28.6211 129.228 28.563 129.005 28.563C128.782 28.563 128.563 28.6211 128.37 28.7317L119.401 33.8567C119.204 33.9681 119.04 34.1296 118.925 34.325C118.811 34.5203 118.751 34.7425 118.75 34.9688V44.427L111.063 48.2708V45.2188C111.063 44.9935 111.004 44.772 110.891 44.5768C110.779 44.3815 110.617 44.2194 110.422 44.1067L101.453 38.9817C101.26 38.8711 101.041 38.813 100.818 38.813C100.595 38.813 100.376 38.8711 100.182 38.9817L91.2134 44.1067C91.0163 44.2181 90.8523 44.3796 90.738 44.575C90.6236 44.7703 90.5631 44.9925 90.5625 45.2188V55.4688C90.5621 55.6942 90.621 55.9156 90.7335 56.1109C90.846 56.3061 91.008 56.4683 91.2031 56.5809L99.5313 61.3369V72.6632L91.2031 77.4192C91.008 77.5319 90.846 77.694 90.7335 77.8893C90.621 78.0845 90.5621 78.306 90.5625 78.5313V88.7813C90.5621 89.0067 90.621 89.2281 90.7335 89.4234C90.846 89.6186 91.008 89.7808 91.2031 89.8934L100.172 95.0184C100.365 95.129 100.584 95.1872 100.807 95.1872C101.03 95.1872 101.249 95.129 101.443 95.0184L109.747 90.2778L118.75 95.8987V99.0313C118.75 99.2567 118.809 99.4781 118.921 99.6734C119.033 99.8686 119.195 100.031 119.391 100.143L128.359 105.268C128.553 105.379 128.772 105.437 128.995 105.437C129.218 105.437 129.437 105.379 129.63 105.268L138.599 100.143C138.796 100.032 138.96 99.8705 139.075 99.6752C139.189 99.4798 139.249 99.2577 139.25 99.0313V95.8987L148.248 90.274L156.552 95.0146C156.746 95.1252 156.965 95.1833 157.188 95.1833C157.41 95.1833 157.629 95.1252 157.823 95.0146L166.792 89.8896C166.987 89.7779 167.15 89.6167 167.263 89.4221C167.377 89.2275 167.437 89.0065 167.438 88.7813V78.5313C167.438 78.306 167.379 78.0845 167.266 77.8893C167.154 77.694 166.992 77.5319 166.797 77.4192L158.469 72.6632V61.3369L166.797 56.5809ZM158.469 58.3862V51.0831L164.875 47.4226V54.7257L158.469 58.3862ZM157.188 82.1803L150.8 78.5313L157.188 74.8823L163.575 78.5313L157.188 82.1803ZM149.5 47.4264L155.906 51.087V58.3901L149.5 54.7257V47.4264ZM157.188 41.5698L163.575 45.2188L157.188 48.8678L150.8 45.2188L157.188 41.5698ZM129 92.4354L122.613 88.7813L129 85.1323L135.387 88.7813L129 92.4354ZM121.313 64.0827L127.719 67.7432V75.0463L121.313 71.3819V64.0827ZM130.281 67.7432L136.688 64.0827V71.3858L130.281 75.0463V67.7432ZM129 65.5241L122.613 61.8751L129 58.2261L135.387 61.8751L129 65.5241ZM121.313 37.1764L127.719 40.837V48.1401L121.313 44.4757V37.1764ZM130.281 40.837L136.688 37.1764V44.4795L130.281 48.1401V40.837ZM129 31.3198L135.387 34.9688L129 38.6178L122.613 34.9688L129 31.3198ZM102.094 51.087L108.5 47.4264V54.7295L102.094 58.3901V51.087ZM100.813 41.5698L107.2 45.2188L100.813 48.8678L94.4255 45.2188L100.813 41.5698ZM93.125 47.4264L99.5313 51.087V58.3901L93.125 54.7257V47.4264ZM100.813 82.1803L94.4255 78.5313L100.813 74.8823L107.2 78.5313L100.813 82.1803ZM93.125 80.7389L99.5313 84.3994V91.7026L93.125 88.0382V80.7389ZM102.094 91.6987V84.3956L108.5 80.7351V88.0382L102.094 91.6987ZM111.063 88.0702V78.5313C111.063 78.306 111.004 78.0845 110.891 77.8893C110.779 77.694 110.617 77.5319 110.422 77.4192L102.094 72.6632V61.3369L110.422 56.5809C110.617 56.4683 110.779 56.3061 110.891 56.1109C111.004 55.9156 111.063 55.6942 111.063 55.4688V51.1356L119.992 46.6718L127.719 51.087V56.007L119.391 60.763C119.195 60.8756 119.033 61.0378 118.921 61.233C118.809 61.4283 118.75 61.6497 118.75 61.8751V72.1251C118.75 72.3504 118.809 72.5719 118.921 72.7671C119.033 72.9624 119.195 73.1245 119.391 73.2372L127.719 77.9932V82.9132L119.391 87.6692C119.195 87.7819 119.033 87.944 118.921 88.1393C118.809 88.3345 118.75 88.556 118.75 88.7813V92.8813L111.063 88.0702ZM121.313 90.9889L127.719 94.6495V101.953L121.313 98.2882V90.9889ZM130.281 101.949V94.6456L136.688 90.9851V98.2882L130.281 101.949ZM138.609 87.6692L130.281 82.9132V77.9932L138.609 73.2372C138.805 73.1245 138.967 72.9624 139.079 72.7671C139.191 72.5719 139.25 72.3504 139.25 72.1251V61.8751C139.25 61.6497 139.191 61.4283 139.079 61.233C138.967 61.0378 138.805 60.8756 138.609 60.763L130.281 56.007V51.087L138.008 46.6718L146.938 51.1356V55.4688C146.937 55.6942 146.996 55.9156 147.109 56.1109C147.221 56.3061 147.383 56.4683 147.578 56.5809L155.906 61.3369V72.6632L147.578 77.4192C147.383 77.5319 147.221 77.694 147.109 77.8893C146.996 78.0845 146.937 78.306 146.938 78.5313V88.0702L139.25 92.8813V88.7813C139.25 88.556 139.191 88.3345 139.079 88.1393C138.967 87.944 138.805 87.7819 138.609 87.6692ZM149.5 80.7389L155.906 84.3994V91.7026L149.5 88.0382V80.7389ZM158.469 91.6987V84.3956L164.875 80.7351V88.0382L158.469 91.6987Z" fill="black"/>
</svg>
