<svg width="162" height="133" viewBox="0 0 162 133" fill="none" xmlns="http://www.w3.org/2000/svg">
<path opacity="0.2" fill-rule="evenodd" clip-rule="evenodd" d="M95.5 133C132.227 133 162 103.227 162 66.5C162 29.7731 132.227 0 95.5 0C58.7731 0 29 29.7731 29 66.5C29 103.227 58.7731 133 95.5 133Z" fill="#E75A7C"/>
<path d="M73.9922 33.0469H66.358V30.8047C66.358 28.1554 64.2026 26 61.5533 26C58.904 26 56.7486 28.1554 56.7486 30.8047V33.0469H29.8424V30.8047C29.8424 28.1554 27.687 26 25.0377 26C22.3884 26 20.233 28.1554 20.233 30.8047V33.1061C20.0969 33.0685 19.9542 33.0469 19.806 33.0469H13.4248C9.00927 33.0469 5.41697 36.6392 5.41697 41.0547V68.3346C5.41697 69.2191 6.13414 69.9361 7.01853 69.9361C7.90291 69.9361 8.62009 69.2191 8.62009 68.3346V49.543H66.358C67.2424 49.543 67.9596 48.8259 67.9596 47.9414C67.9596 47.0569 67.2424 46.3398 66.358 46.3398H8.62009V41.0547C8.62009 38.4054 10.7755 36.25 13.4248 36.25H19.806C19.9542 36.25 20.0969 36.2282 20.233 36.1907V38.252C20.233 40.9013 22.3884 43.0566 25.0377 43.0566C27.687 43.0566 29.8424 40.9013 29.8424 38.252V36.25H56.7486V38.252C56.7486 40.9013 58.904 43.0566 61.5533 43.0566C64.2026 43.0566 66.358 40.9013 66.358 38.252V36.25H73.9922C76.6415 36.25 78.7969 38.4054 78.7969 41.0547V101.913C78.7969 103.503 77.5033 104.797 75.9131 104.797C74.3229 104.797 73.0293 103.503 73.0293 101.913V97.77C73.0293 96.8855 72.3121 96.1685 71.4278 96.1685H52.7982C51.9138 96.1685 51.1967 96.8855 51.1967 97.77C51.1967 98.6546 51.9138 99.3716 52.7982 99.3716H69.8262V101.913C69.8262 102.956 70.0901 103.938 70.5541 104.797H6.08594C4.49639 104.797 3.20312 103.504 3.20312 101.914V99.3716H39.0501C39.9345 99.3716 40.6517 98.6546 40.6517 97.77C40.6517 96.8855 39.9345 96.1685 39.0501 96.1685H23.0479C25.8465 93.7583 27.6236 90.1932 27.6236 86.2188C27.6236 78.9773 21.7322 73.0859 14.4908 73.0859C7.24931 73.0859 1.35796 78.9773 1.35796 86.2188C1.35796 90.1932 3.13506 93.7583 5.93363 96.1685H1.60156C0.71718 96.1685 0 96.8855 0 97.77V101.914C0 105.27 2.73018 108 6.08594 108H75.9131C79.2693 108 82 105.269 82 101.913V41.0547C82 36.6392 78.4077 33.0469 73.9922 33.0469ZM26.6393 38.252C26.6393 39.1351 25.9208 39.8535 25.0377 39.8535C24.1546 39.8535 23.4361 39.1351 23.4361 38.252V30.8047C23.4361 29.9216 24.1546 29.2031 25.0377 29.2031C25.9208 29.2031 26.6393 29.9216 26.6393 30.8047V38.252ZM63.1549 38.252C63.1549 39.1351 62.4364 39.8535 61.5533 39.8535C60.6702 39.8535 59.9518 39.1351 59.9518 38.252V30.8047C59.9518 29.9216 60.6702 29.2031 61.5533 29.2031C62.4364 29.2031 63.1549 29.9216 63.1549 30.8047V38.252ZM4.56109 86.2188C4.56109 80.7435 9.01552 76.2891 14.4908 76.2891C19.966 76.2891 24.4205 80.7435 24.4205 86.2188C24.4205 91.694 19.966 96.1484 14.4908 96.1484C9.01552 96.1484 4.56109 91.694 4.56109 86.2188Z" fill="black"/>
<path d="M75.0026 46.8091C74.7049 46.5112 74.2917 46.3398 73.8705 46.3398C73.4491 46.3398 73.0361 46.5112 72.7382 46.8091C72.4403 47.107 72.2689 47.5202 72.2689 47.9414C72.2689 48.3626 72.4401 48.7758 72.7382 49.0737C73.0362 49.3716 73.4491 49.543 73.8705 49.543C74.2917 49.543 74.7049 49.3716 75.0026 49.0737C75.3005 48.7758 75.472 48.3626 75.472 47.9414C75.472 47.5202 75.3007 47.107 75.0026 46.8091Z" fill="black"/>
<path d="M47.8305 96.6369C47.5328 96.339 47.1196 96.1693 46.6984 96.1693C46.2772 96.1693 45.864 96.339 45.5661 96.6369C45.2682 96.9364 45.0968 97.348 45.0968 97.7692C45.0968 98.192 45.268 98.6036 45.5661 98.9031C45.864 99.201 46.2772 99.3708 46.6984 99.3708C47.1196 99.3708 47.5328 99.201 47.8305 98.9031C48.1284 98.6036 48.2999 98.1904 48.2999 97.7692C48.2999 97.348 48.1286 96.9364 47.8305 96.6369Z" fill="black"/>
<path d="M36.2345 74.6875C32.8787 74.6875 30.1486 77.4177 30.1486 80.7734C30.1486 84.1292 32.8787 86.8594 36.2345 86.8594C39.5903 86.8594 42.3204 84.1292 42.3204 80.7734C42.3204 77.4177 39.5903 74.6875 36.2345 74.6875ZM36.2345 83.6562C34.6449 83.6562 33.3517 82.363 33.3517 80.7734C33.3517 79.1839 34.6449 77.8906 36.2345 77.8906C37.824 77.8906 39.1173 79.1839 39.1173 80.7734C39.1173 82.363 37.824 83.6562 36.2345 83.6562Z" fill="black"/>
<path d="M51.1824 74.6875C47.8266 74.6875 45.0964 77.4177 45.0964 80.7734C45.0964 84.1292 47.8266 86.8594 51.1824 86.8594C54.5381 86.8594 57.2683 84.1292 57.2683 80.7734C57.2683 77.4177 54.5381 74.6875 51.1824 74.6875ZM51.1824 83.6562C49.5928 83.6562 48.2996 82.363 48.2996 80.7734C48.2996 79.1839 49.5928 77.8906 51.1824 77.8906C52.7719 77.8906 54.0652 79.1839 54.0652 80.7734C54.0652 82.363 52.7719 83.6562 51.1824 83.6562Z" fill="black"/>
<path d="M66.1305 74.6875C62.7747 74.6875 60.0446 77.4177 60.0446 80.7734C60.0446 84.1292 62.7747 86.8594 66.1305 86.8594C69.4862 86.8594 72.2164 84.1292 72.2164 80.7734C72.2164 77.4177 69.4862 74.6875 66.1305 74.6875ZM66.1305 83.6562C64.5409 83.6562 63.2477 82.363 63.2477 80.7734C63.2477 79.1839 64.5409 77.8906 66.1305 77.8906C67.72 77.8906 69.0133 79.1839 69.0133 80.7734C69.0133 82.363 67.72 83.6562 66.1305 83.6562Z" fill="black"/>
<path d="M21.2866 58.0312C17.9309 58.0312 15.2007 60.7614 15.2007 64.1172C15.2007 67.4729 17.9309 70.2031 21.2866 70.2031C24.6424 70.2031 27.3726 67.4729 27.3726 64.1172C27.3726 60.7614 24.6424 58.0312 21.2866 58.0312ZM21.2866 67C19.6971 67 18.4038 65.7067 18.4038 64.1172C18.4038 62.5276 19.6971 61.2344 21.2866 61.2344C22.8762 61.2344 24.1694 62.5276 24.1694 64.1172C24.1694 65.7067 22.8762 67 21.2866 67Z" fill="black"/>
<path d="M51.1824 58.0312C47.8266 58.0312 45.0964 60.7614 45.0964 64.1172C45.0964 67.4729 47.8266 70.2031 51.1824 70.2031C54.5381 70.2031 57.2683 67.4729 57.2683 64.1172C57.2683 60.7614 54.5381 58.0312 51.1824 58.0312ZM51.1824 67C49.5928 67 48.2996 65.7067 48.2996 64.1172C48.2996 62.5276 49.5928 61.2344 51.1824 61.2344C52.7719 61.2344 54.0652 62.5276 54.0652 64.1172C54.0652 65.7067 52.7719 67 51.1824 67Z" fill="black"/>
<path d="M66.1305 58.0312C62.7747 58.0312 60.0446 60.7614 60.0446 64.1172C60.0446 67.4729 62.7747 70.2031 66.1305 70.2031C69.4862 70.2031 72.2164 67.4729 72.2164 64.1172C72.2164 60.7614 69.4862 58.0312 66.1305 58.0312ZM66.1305 67C64.5409 67 63.2477 65.7067 63.2477 64.1172C63.2477 62.5276 64.5409 61.2344 66.1305 61.2344C67.72 61.2344 69.0133 62.5276 69.0133 64.1172C69.0133 65.7067 67.72 67 66.1305 67Z" fill="black"/>
<path d="M36.2345 58.0312C32.8787 58.0312 30.1486 60.7614 30.1486 64.1172C30.1486 67.4729 32.8787 70.2031 36.2345 70.2031C39.5903 70.2031 42.3204 67.4729 42.3204 64.1172C42.3204 60.7614 39.5903 58.0312 36.2345 58.0312ZM36.2345 67C34.6449 67 33.3517 65.7067 33.3517 64.1172C33.3517 62.5276 34.6449 61.2344 36.2345 61.2344C37.824 61.2344 39.1173 62.5276 39.1173 64.1172C39.1173 65.7067 37.824 67 36.2345 67Z" fill="black"/>
<path d="M20.1964 82.3156C19.5708 81.6901 18.557 81.6901 17.9313 82.3156L12.7156 87.5314L10.9332 85.749C10.3077 85.1236 9.29388 85.1236 8.66815 85.749C8.04274 86.3744 8.04274 87.3885 8.66815 88.0141L11.5832 90.9288C11.8836 91.2291 12.2909 91.3979 12.7156 91.3979C13.1404 91.3979 13.5476 91.2291 13.8481 90.9288L20.1964 84.5805C20.8218 83.9551 20.8218 82.941 20.1964 82.3156Z" fill="black"/>
</svg>
