<svg width="169" height="133" viewBox="0 0 169 133" fill="none" xmlns="http://www.w3.org/2000/svg">
<path opacity="0.2" fill-rule="evenodd" clip-rule="evenodd" d="M66.5 133C103.227 133 133 103.227 133 66.5C133 29.7731 103.227 0 66.5 0C29.7731 0 0 29.7731 0 66.5C0 103.227 29.7731 133 66.5 133Z" fill="#E75A7C"/>
<path d="M164.532 68.255L165.301 67L164.532 65.7444C164.403 65.5348 161.31 60.5424 155.301 55.5394C147.309 48.8861 137.893 45.3689 128.072 45.3689C118.253 45.3689 108.814 48.8842 100.777 55.5344C94.7332 60.5349 91.6051 65.5236 91.475 65.7338L90.6899 67L91.475 68.2662C91.6051 68.4764 94.7332 73.4651 100.777 78.4656C108.814 85.1158 118.253 88.6311 128.072 88.6311C137.893 88.6311 147.309 85.1139 155.301 78.4606C161.31 73.4576 164.403 68.4652 164.532 68.255ZM152.099 74.8733C144.91 80.8141 136.826 83.8258 128.072 83.8258C119.315 83.8258 111.205 80.8122 103.967 74.8677C100.223 71.7934 97.6848 68.6804 96.4417 67C97.6855 65.3184 100.224 62.2059 103.967 59.1317C111.205 53.1878 119.315 50.1736 128.072 50.1736C136.826 50.1736 144.909 53.1859 152.099 59.1261C155.826 62.2053 158.342 65.3227 159.568 67C158.341 68.6779 155.825 71.7953 152.099 74.8733Z" fill="black"/>
<path d="M128 52.5647C120.04 52.5647 113.565 59.0404 113.565 67C113.565 74.9597 120.04 81.4354 128 81.4354C135.96 81.4354 142.435 74.9597 142.435 67C142.435 59.0404 135.96 52.5647 128 52.5647ZM128 76.6307C122.69 76.6307 118.369 72.3102 118.369 67C118.369 61.6898 122.69 57.3694 128 57.3694C133.31 57.3694 137.631 61.6898 137.631 67C137.631 72.3102 133.31 76.6307 128 76.6307Z" fill="black"/>
<path d="M91.8047 30.8047H101.834V26H87V40.6543H91.8047V30.8047Z" fill="black"/>
<path d="M154.166 26V30.8047H164.195V40.6543H169V26H154.166Z" fill="black"/>
<path d="M91.8047 93.3457H87V108H101.834V103.195H91.8047V93.3457Z" fill="black"/>
<path d="M164.195 103.195H154.166V108H169V93.3457H164.195V103.195Z" fill="black"/>
</svg>
