<svg width="161" height="133" viewBox="0 0 161 133" fill="none" xmlns="http://www.w3.org/2000/svg">
<path opacity="0.2" fill-rule="evenodd" clip-rule="evenodd" d="M94.5 133C131.227 133 161 103.227 161 66.5C161 29.7731 131.227 0 94.5 0C57.7731 0 28 29.7731 28 66.5C28 103.227 57.7731 133 94.5 133Z" fill="#E75A7C"/>
<path d="M55.4141 77.0898C54.5297 77.0898 53.8125 77.8069 53.8125 78.6914V89.7422C53.8125 94.1577 50.2202 97.75 45.8047 97.75H28.5129C27.6287 97.75 26.912 98.4664 26.9114 99.3504L26.9091 102.535L23.0865 98.7122C22.8391 98.1441 22.2728 97.75 21.6177 97.75H11.2109C6.79543 97.75 3.20312 94.1577 3.20312 89.7422V65.0781C3.20312 60.6626 6.79543 57.0703 11.2109 57.0703H27.3867C28.2711 57.0703 28.9883 56.3533 28.9883 55.4688C28.9883 54.5842 28.2711 53.8672 27.3867 53.8672H11.2109C5.02923 53.8672 0 58.8964 0 65.0781V89.7422C0 95.9239 5.02923 100.953 11.2109 100.953H20.7976L27.3753 107.531C27.6817 107.837 28.0912 108 28.5081 108C28.7143 108 28.9223 107.96 29.1201 107.878C29.7186 107.631 30.1089 107.047 30.1094 106.4L30.1132 100.953H45.8047C51.9864 100.953 57.0156 95.9239 57.0156 89.7422V78.6914C57.0156 77.8069 56.2984 77.0898 55.4141 77.0898Z" fill="black"/>
<path d="M58.7221 26H54.6687C41.8331 26 31.3906 36.4425 31.3906 49.2781C31.3906 62.1136 41.8331 72.556 54.6685 72.556H58.7219C60.7253 72.556 62.7082 72.3015 64.6301 71.7986L70.6179 77.783C70.9242 78.0891 71.3336 78.2518 71.7503 78.2518C71.9568 78.2518 72.165 78.2119 72.3631 78.1297C72.9614 77.8818 73.3516 77.2979 73.3516 76.6502V67.3842C75.8867 65.3312 77.9926 62.7378 79.4705 59.8405C81.1491 56.55 82 52.9963 82 49.2781C82 36.4425 71.5575 26 58.7221 26ZM70.7863 65.324C70.3848 65.6265 70.1484 66.1002 70.1484 66.6033V72.7853L66.2293 68.8682C65.9243 68.5636 65.5153 68.3994 65.097 68.3994C64.94 68.3994 64.7814 68.4227 64.6267 68.4702C62.7204 69.0561 60.7338 69.353 58.7221 69.353H54.6687C43.5992 69.353 34.5938 60.3474 34.5938 49.2781C34.5938 38.2087 43.5993 29.2031 54.6687 29.2031H58.7221C69.7915 29.2031 78.7969 38.2087 78.7969 49.2781C78.7969 55.6412 75.8772 61.4898 70.7863 65.324Z" fill="black"/>
<path d="M63.9076 43.5245C63.6765 40.1716 60.9737 37.4688 57.6207 37.2377C55.7199 37.1072 53.906 37.7483 52.5176 39.0444C51.1483 40.3226 50.363 42.1295 50.363 44.0019C50.363 44.8864 51.0802 45.6035 51.9646 45.6035C52.849 45.6035 53.5662 44.8864 53.5662 44.0019C53.5662 42.9995 53.9701 42.0704 54.7033 41.3861C55.4358 40.7024 56.3932 40.364 57.4006 40.4335C59.1668 40.5552 60.5905 41.9788 60.7122 43.7448C60.8352 45.5285 59.6649 47.1048 57.9298 47.493C56.5239 47.8075 55.5422 49.0292 55.5422 50.4637V54.3115C55.5422 55.196 56.2593 55.913 57.1437 55.913C58.0283 55.913 58.7453 55.196 58.7451 54.3115V50.5917C61.9723 49.812 64.1374 46.8591 63.9076 43.5245Z" fill="black"/>
<path d="M58.276 59.5143C57.9781 59.2164 57.5649 59.045 57.1437 59.045C56.7225 59.045 56.3093 59.2164 56.0114 59.5143C55.7135 59.8122 55.5421 60.2254 55.5421 60.6466C55.5421 61.0694 55.7136 61.4826 56.0114 61.7805C56.3093 62.0784 56.7225 62.2482 57.1437 62.2482C57.5649 62.2482 57.9781 62.0784 58.276 61.7805C58.5739 61.481 58.7452 61.0694 58.7452 60.6466C58.7452 60.2254 58.5737 59.8122 58.276 59.5143Z" fill="black"/>
<path d="M44.043 75.6484H10.25C9.36562 75.6484 8.64844 76.3655 8.64844 77.25C8.64844 78.1345 9.36562 78.8516 10.25 78.8516H44.043C44.9275 78.8516 45.6445 78.1345 45.6445 77.25C45.6445 76.3655 44.9274 75.6484 44.043 75.6484Z" fill="black"/>
<path d="M45.1751 85.0864C44.8774 84.7886 44.4642 84.6172 44.043 84.6172C43.6218 84.6172 43.2086 84.7886 42.9107 85.0864C42.6126 85.3843 42.4414 85.7975 42.4414 86.2188C42.4414 86.64 42.6128 87.0532 42.9107 87.3511C43.2086 87.6489 43.6218 87.8203 44.043 87.8203C44.4642 87.8203 44.8774 87.6489 45.1751 87.3511C45.4732 87.0532 45.6445 86.6416 45.6445 86.2188C45.6445 85.7975 45.473 85.3843 45.1751 85.0864Z" fill="black"/>
<path d="M37.7435 84.6172H10.25C9.36562 84.6172 8.64844 85.3342 8.64844 86.2188C8.64844 87.1033 9.36562 87.8203 10.25 87.8203H37.7435C38.6281 87.8203 39.3451 87.1033 39.3451 86.2188C39.3451 85.3342 38.6279 84.6172 37.7435 84.6172Z" fill="black"/>
<path d="M33.6328 66.6797H10.25C9.36562 66.6797 8.64844 67.3967 8.64844 68.2812C8.64844 69.1658 9.36562 69.8828 10.25 69.8828H33.6328C34.5174 69.8828 35.2344 69.1658 35.2344 68.2812C35.2344 67.3967 34.5172 66.6797 33.6328 66.6797Z" fill="black"/>
</svg>
