<svg width="159" height="133" viewBox="0 0 159 133" fill="none" xmlns="http://www.w3.org/2000/svg">
<path opacity="0.2" fill-rule="evenodd" clip-rule="evenodd" d="M92.5 133C129.227 133 159 103.227 159 66.5C159 29.7731 129.227 0 92.5 0C55.7731 0 26 29.7731 26 66.5C26 103.227 55.7731 133 92.5 133Z" fill="#E75A7C"/>
<path d="M25.625 69.5625C18.5602 69.5625 12.8125 75.3102 12.8125 82.375C12.8125 89.4398 18.5602 95.1875 25.625 95.1875C32.6898 95.1875 38.4375 89.4398 38.4375 82.375C38.4375 75.3102 32.6898 69.5625 25.625 69.5625ZM25.625 90.0625C21.3853 90.0625 17.9375 86.6147 17.9375 82.375C17.9375 78.1353 21.3853 74.6875 25.625 74.6875C29.8647 74.6875 33.3125 78.1353 33.3125 82.375C33.3125 86.6147 29.8647 90.0625 25.625 90.0625Z" fill="black"/>
<path d="M42.927 77.7113C42.5221 76.2032 41.9276 74.7644 41.1602 73.4357L40.786 72.7861L43.041 68.9859L39.0128 64.9577L35.2126 67.2127L34.563 66.8386C33.2343 66.0711 31.7955 65.4779 30.2875 65.0717L29.5648 64.877L28.4732 60.5938H22.7781L21.6852 64.8782L20.9625 65.073C19.4545 65.4779 18.0157 66.0724 16.687 66.8398L16.0374 67.214L12.2372 64.959L8.20897 68.9872L10.464 72.7874L10.0898 73.437C9.32237 74.7657 8.72787 76.2045 8.323 77.7125L8.12825 78.4352L3.84375 79.5268V85.2219L8.12825 86.3148L8.323 87.0375C8.72787 88.5455 9.32237 89.9843 10.0898 91.313L10.464 91.9626L8.20897 95.7628L12.2372 99.791L16.0374 97.536L16.687 97.9102C18.0157 98.6776 19.4545 99.2708 20.9625 99.677L21.6852 99.8717L22.7768 104.156H28.4719L29.5648 99.8717L30.2875 99.677C31.7955 99.2721 33.2343 98.6776 34.563 97.9102L35.2126 97.536L39.0128 99.791L43.041 95.7628L40.786 91.9626L41.1602 91.313C41.9276 89.9843 42.5208 88.5455 42.927 87.0375L43.1217 86.3148L47.4062 85.2232V79.5281L43.1217 78.4352L42.927 77.7113ZM25.625 97.75C17.147 97.75 10.25 90.853 10.25 82.375C10.25 73.897 17.147 67 25.625 67C34.103 67 41 73.897 41 82.375C41 90.853 34.103 97.75 25.625 97.75Z" fill="black"/>
<path d="M25.625 87.5C28.4555 87.5 30.75 85.2055 30.75 82.375C30.75 79.5445 28.4555 77.25 25.625 77.25C22.7945 77.25 20.5 79.5445 20.5 82.375C20.5 85.2055 22.7945 87.5 25.625 87.5Z" fill="black"/>
<path d="M76.875 40.0938H46.125C45.4178 40.0938 44.8438 40.6678 44.8438 41.375V59.3125C44.8438 60.0198 45.4178 60.5938 46.125 60.5938H51.25V64.9269L59.9164 60.5938H76.875C77.5822 60.5938 78.1562 60.0198 78.1562 59.3125V41.375C78.1562 40.6678 77.5822 40.0938 76.875 40.0938ZM75.5938 58.0313H49.9688V55.4688H52.5312V50.3438H55.0938V55.4688H57.6562V47.7813H60.2188V55.4688H62.7812V42.6563H65.3438V55.4688H67.9062V45.2188H70.4688V55.4688H73.0312V42.6563H75.5938V58.0313Z" fill="black"/>
<path d="M5.125 47.7812H18.2924L23.0625 50.6423V47.7812H35.875C36.5822 47.7812 37.1562 47.2073 37.1562 46.5V31.125C37.1562 30.4178 36.5822 29.8438 35.875 29.8438H5.125C4.41775 29.8438 3.84375 30.4178 3.84375 31.125V46.5C3.84375 47.2073 4.41775 47.7812 5.125 47.7812ZM30.75 36.25C32.1632 36.25 33.3125 37.3993 33.3125 38.8125C33.3125 40.2257 32.1632 41.375 30.75 41.375C29.3368 41.375 28.1875 40.2257 28.1875 38.8125C28.1875 37.3993 29.3368 36.25 30.75 36.25ZM20.5 36.25C21.9132 36.25 23.0625 37.3993 23.0625 38.8125C23.0625 40.2257 21.9132 41.375 20.5 41.375C19.0868 41.375 17.9375 40.2257 17.9375 38.8125C17.9375 37.3993 19.0868 36.25 20.5 36.25ZM10.25 36.25C11.6632 36.25 12.8125 37.3993 12.8125 38.8125C12.8125 40.2257 11.6632 41.375 10.25 41.375C8.83678 41.375 7.6875 40.2257 7.6875 38.8125C7.6875 37.3993 8.83678 36.25 10.25 36.25Z" fill="black"/>
<path d="M66.625 81.0938C64.452 81.0938 62.3238 81.7126 60.4712 82.8849L60.0855 83.1284L55.8535 82.6248L57.2437 85.9023L56.8849 86.4699C55.7126 88.3238 55.0938 90.452 55.0938 92.625C55.0938 95.3797 56.0675 97.9102 57.6857 99.8961C57.8292 97.9973 58.9324 96.3201 60.6569 95.4578L62.5955 94.4892C61.8921 93.5923 61.5 92.4841 61.5 91.3438V88.9991C61.5 86.1496 63.6307 83.8049 66.3508 83.6627C67.7909 83.6114 69.1234 84.088 70.1536 85.0643C71.1683 86.0278 71.75 87.3821 71.75 88.7813V91.3438C71.75 92.4841 71.3579 93.5923 70.6558 94.4892L72.5943 95.4578C74.3189 96.3201 75.4221 97.9973 75.5656 99.8961C77.1825 97.9102 78.1562 95.3797 78.1562 92.625C78.1562 86.2662 72.9838 81.0938 66.625 81.0938Z" fill="black"/>
<path d="M66.625 104.156C69.363 104.156 71.8768 103.193 73.8577 101.594H59.3923C61.3731 103.193 63.887 104.156 66.625 104.156Z" fill="black"/>
<path d="M61.8024 97.75C61.2336 98.0344 60.789 98.4867 60.5173 99.0313H72.7315C72.4599 98.4867 72.0165 98.0344 71.4464 97.75L67.9063 95.9793V93.6205L68.3291 93.2387C68.8826 92.7403 69.1875 92.0664 69.1875 91.3438V88.7813C69.1875 88.0714 68.9031 87.4129 68.3893 86.9234C67.8743 86.4327 67.1875 86.1816 66.4854 86.2226C65.1503 86.2931 64.0625 87.5372 64.0625 88.9991V91.3438C64.0625 92.0664 64.3675 92.7403 64.921 93.2387L65.3438 93.6205V95.9793L61.8024 97.75Z" fill="black"/>
</svg>
