<svg width="79" height="34" viewBox="0 0 79 34" fill="none" xmlns="http://www.w3.org/2000/svg">
<path d="M11.7637 33.6C9.1637 33.6 6.9137 33.1833 5.0137 32.35C3.14703 31.4833 1.5637 30.4 0.263696 29.1L4.0637 23.7C5.03036 24.5667 6.04703 25.2833 7.1137 25.85C8.18036 26.4167 9.29703 26.7 10.4637 26.7C11.9637 26.7 13.1137 26.3667 13.9137 25.7C14.747 25.0333 15.1637 24 15.1637 22.6C15.1637 21.2333 14.7637 20.2167 13.9637 19.55C13.1637 18.85 12.1304 18.5 10.8637 18.5C10.4304 18.5 10.047 18.5333 9.7137 18.6C9.38036 18.6333 9.04703 18.7 8.7137 18.8C8.4137 18.9 8.08036 19.05 7.7137 19.25C7.34703 19.45 6.93036 19.7 6.4637 20L2.7637 17.6L3.5637 1.3H22.3637V8.5H10.9637L10.5637 13.1C11.1304 12.9 11.6304 12.7667 12.0637 12.7C12.5304 12.6333 13.0304 12.6 13.5637 12.6C14.9304 12.6 16.2304 12.8 17.4637 13.2C18.697 13.6 19.7804 14.2 20.7137 15C21.647 15.8 22.3804 16.8167 22.9137 18.05C23.4804 19.2833 23.7637 20.7333 23.7637 22.4C23.7637 24.1667 23.4304 25.75 22.7637 27.15C22.1304 28.55 21.2637 29.7333 20.1637 30.7C19.0637 31.6333 17.7804 32.35 16.3137 32.85C14.8804 33.35 13.3637 33.6 11.7637 33.6ZM39.6656 33.6C37.899 33.6 36.299 33.25 34.8656 32.55C33.4323 31.8167 32.1823 30.75 31.1156 29.35C30.0823 27.95 29.2823 26.2167 28.7156 24.15C28.149 22.0833 27.8656 19.7 27.8656 17C27.8656 14.3 28.149 11.9333 28.7156 9.9C29.2823 7.83333 30.0823 6.13333 31.1156 4.8C32.1823 3.43333 33.4323 2.41667 34.8656 1.75C36.299 1.05 37.899 0.699999 39.6656 0.699999C41.399 0.699999 42.9823 1.05 44.4156 1.75C45.8823 2.41667 47.1323 3.43333 48.1657 4.8C49.2323 6.16667 50.049 7.86667 50.6157 9.9C51.1823 11.9333 51.4657 14.3 51.4657 17C51.4657 19.7 51.1823 22.0833 50.6157 24.15C50.049 26.2167 49.2323 27.95 48.1657 29.35C47.1323 30.75 45.8823 31.8167 44.4156 32.55C42.9823 33.25 41.399 33.6 39.6656 33.6ZM39.6656 27C40.1657 27 40.6323 26.8833 41.0656 26.65C41.5323 26.3833 41.9323 25.8833 42.2657 25.15C42.599 24.4167 42.8657 23.4 43.0657 22.1C43.2657 20.8 43.3656 19.1 43.3656 17C43.3656 14.9 43.2657 13.2167 43.0657 11.95C42.8657 10.6833 42.599 9.7 42.2657 9C41.9323 8.3 41.5323 7.85 41.0656 7.65C40.6323 7.41667 40.1657 7.3 39.6656 7.3C39.1657 7.3 38.6823 7.41667 38.2156 7.65C37.7823 7.85 37.399 8.3 37.0656 9C36.7323 9.7 36.4656 10.6833 36.2656 11.95C36.0656 13.2167 35.9656 14.9 35.9656 17C35.9656 19.1 36.0656 20.8 36.2656 22.1C36.4656 23.4 36.7323 24.4167 37.0656 25.15C37.399 25.8833 37.7823 26.3833 38.2156 26.65C38.6823 26.8833 39.1657 27 39.6656 27ZM63.5676 28.5V19.5H54.8676V13.5H63.5676V4.5H69.7676V13.5H78.4676V19.5H69.7676V28.5H63.5676Z" fill="white"/>
</svg>
