<svg width="79" height="34" viewBox="0 0 79 34" fill="none" xmlns="http://www.w3.org/2000/svg">
<path d="M11.7971 33.6C9.19707 33.6 6.96374 33.2 5.09707 32.4C3.2304 31.6 1.69707 30.5 0.49707 29.1L4.39707 23.7C5.36374 24.6 6.39707 25.3333 7.49707 25.9C8.6304 26.4333 9.76374 26.7 10.8971 26.7C12.2971 26.7 13.4137 26.45 14.2471 25.95C15.0804 25.45 15.4971 24.7 15.4971 23.7C15.4971 23.1 15.3971 22.5667 15.1971 22.1C14.9971 21.6333 14.6137 21.2333 14.0471 20.9C13.4804 20.5667 12.6804 20.3167 11.6471 20.15C10.6137 19.9833 9.26374 19.9 7.59707 19.9V13.9C8.9304 13.9 10.0304 13.8167 10.8971 13.65C11.7971 13.4833 12.5137 13.25 13.0471 12.95C13.5804 12.6167 13.9471 12.2333 14.1471 11.8C14.3804 11.3667 14.4971 10.8667 14.4971 10.3C14.4971 8.36667 13.3971 7.4 11.1971 7.4C10.1304 7.4 9.1804 7.61667 8.34707 8.05C7.51374 8.48333 6.59707 9.13333 5.59707 10L1.29707 4.8C2.86374 3.5 4.4804 2.5 6.14707 1.8C7.81374 1.06667 9.6304 0.699999 11.5971 0.699999C15.0971 0.699999 17.8804 1.48333 19.9471 3.05C22.0471 4.58333 23.0971 6.78333 23.0971 9.65C23.0971 12.7167 21.3971 15 17.9971 16.5V16.7C19.7971 17.2667 21.2637 18.1833 22.3971 19.45C23.5304 20.6833 24.0971 22.3 24.0971 24.3C24.0971 25.8 23.7637 27.1333 23.0971 28.3C22.4304 29.4333 21.5304 30.4 20.3971 31.2C19.2971 32 17.9971 32.6 16.4971 33C14.9971 33.4 13.4304 33.6 11.7971 33.6ZM39.999 33.6C38.2324 33.6 36.6324 33.25 35.199 32.55C33.7657 31.8167 32.5157 30.75 31.449 29.35C30.4157 27.95 29.6157 26.2167 29.049 24.15C28.4824 22.0833 28.199 19.7 28.199 17C28.199 14.3 28.4824 11.9333 29.049 9.9C29.6157 7.83333 30.4157 6.13333 31.449 4.8C32.5157 3.43333 33.7657 2.41667 35.199 1.75C36.6324 1.05 38.2324 0.699999 39.999 0.699999C41.7324 0.699999 43.3157 1.05 44.749 1.75C46.2157 2.41667 47.4657 3.43333 48.499 4.8C49.5657 6.16667 50.3824 7.86667 50.949 9.9C51.5157 11.9333 51.799 14.3 51.799 17C51.799 19.7 51.5157 22.0833 50.949 24.15C50.3824 26.2167 49.5657 27.95 48.499 29.35C47.4657 30.75 46.2157 31.8167 44.749 32.55C43.3157 33.25 41.7324 33.6 39.999 33.6ZM39.999 27C40.499 27 40.9657 26.8833 41.399 26.65C41.8657 26.3833 42.2657 25.8833 42.599 25.15C42.9324 24.4167 43.199 23.4 43.399 22.1C43.599 20.8 43.699 19.1 43.699 17C43.699 14.9 43.599 13.2167 43.399 11.95C43.199 10.6833 42.9324 9.7 42.599 9C42.2657 8.3 41.8657 7.85 41.399 7.65C40.9657 7.41667 40.499 7.3 39.999 7.3C39.499 7.3 39.0157 7.41667 38.549 7.65C38.1157 7.85 37.7324 8.3 37.399 9C37.0657 9.7 36.799 10.6833 36.599 11.95C36.399 13.2167 36.299 14.9 36.299 17C36.299 19.1 36.399 20.8 36.599 22.1C36.799 23.4 37.0657 24.4167 37.399 25.15C37.7324 25.8833 38.1157 26.3833 38.549 26.65C39.0157 26.8833 39.499 27 39.999 27ZM63.901 28.5V19.5H55.201V13.5H63.901V4.5H70.101V13.5H78.801V19.5H70.101V28.5H63.901Z" fill="white"/>
</svg>
