<svg width="51" height="32" viewBox="0 0 51 32" fill="none" xmlns="http://www.w3.org/2000/svg">
<path d="M6.09805 32C6.23138 29.5 6.46471 27.2 6.79805 25.1C7.13138 23 7.59805 20.9833 8.19805 19.05C8.83138 17.1167 9.63138 15.2167 10.598 13.35C11.598 11.4833 12.8314 9.53333 14.298 7.5H0.698047V0.3H23.398V5.6C21.5647 7.73333 20.1147 9.73333 19.048 11.6C17.9814 13.4667 17.148 15.4 16.548 17.4C15.948 19.3667 15.5147 21.5167 15.248 23.85C15.0147 26.1833 14.8314 28.9 14.698 32H6.09805ZM35.9 27.5V18.5H27.2V12.5H35.9V3.5H42.1V12.5H50.8V18.5H42.1V27.5H35.9Z" fill="white"/>
</svg>
