<svg width="230" height="49" viewBox="0 0 230 49" fill="none" xmlns="http://www.w3.org/2000/svg">
<path d="M9.41763 43.5V38.5C7.98429 38.3333 6.45096 37.95 4.81763 37.35C3.21763 36.7167 1.78429 35.8333 0.517627 34.7L4.21763 28.9C5.58429 29.9 6.80096 30.6167 7.86763 31.05C8.96763 31.4833 10.051 31.7 11.1176 31.7C12.3843 31.7 13.2843 31.4833 13.8176 31.05C14.351 30.5833 14.6176 29.8667 14.6176 28.9C14.6176 28.2333 14.301 27.65 13.6676 27.15C13.0343 26.6167 12.2343 26.1 11.2676 25.6C10.301 25.1 9.26763 24.5833 8.16763 24.05C7.06763 23.4833 6.03429 22.8167 5.06763 22.05C4.10096 21.2833 3.30096 20.3833 2.66763 19.35C2.03429 18.3167 1.71763 17.0667 1.71763 15.6C1.71763 13.0667 2.38429 10.9667 3.71763 9.3C5.08429 7.63333 6.98429 6.53333 9.41763 6V0.799999H15.0176V5.9C16.6176 6.16667 18.0176 6.66667 19.2176 7.4C20.451 8.13333 21.5676 9.03333 22.5676 10.1L18.3176 15C17.4176 14.2 16.551 13.6 15.7176 13.2C14.9176 12.8 14.051 12.6 13.1176 12.6C12.051 12.6 11.251 12.7833 10.7176 13.15C10.1843 13.5167 9.91763 14.2 9.91763 15.2C9.91763 15.8333 10.2343 16.3833 10.8676 16.85C11.501 17.3167 12.301 17.7833 13.2676 18.25C14.2343 18.7167 15.2676 19.2167 16.3676 19.75C17.4676 20.2833 18.501 20.9333 19.4676 21.7C20.4343 22.4667 21.2343 23.3833 21.8676 24.45C22.501 25.5167 22.8176 26.8 22.8176 28.3C22.8176 30.7333 22.1676 32.8333 20.8676 34.6C19.601 36.3667 17.651 37.5667 15.0176 38.2V43.5H9.41763ZM29.1196 38V31.1H35.9196V14.7H29.9196V9.4C31.7196 9.03333 33.2529 8.61667 34.5196 8.15C35.7862 7.68333 37.0196 7.06667 38.2196 6.3H44.5196V31.1H50.2196V38H29.1196ZM66.3215 38.6C64.5549 38.6 62.9549 38.25 61.5215 37.55C60.0882 36.8167 58.8382 35.75 57.7715 34.35C56.7382 32.95 55.9382 31.2167 55.3715 29.15C54.8049 27.0833 54.5215 24.7 54.5215 22C54.5215 19.3 54.8049 16.9333 55.3715 14.9C55.9382 12.8333 56.7382 11.1333 57.7715 9.8C58.8382 8.43333 60.0882 7.41667 61.5215 6.75C62.9549 6.05 64.5549 5.7 66.3215 5.7C68.0549 5.7 69.6382 6.05 71.0715 6.75C72.5382 7.41667 73.7882 8.43333 74.8215 9.8C75.8882 11.1667 76.7049 12.8667 77.2715 14.9C77.8382 16.9333 78.1215 19.3 78.1215 22C78.1215 24.7 77.8382 27.0833 77.2715 29.15C76.7049 31.2167 75.8882 32.95 74.8215 34.35C73.7882 35.75 72.5382 36.8167 71.0715 37.55C69.6382 38.25 68.0549 38.6 66.3215 38.6ZM66.3215 32C66.8215 32 67.2882 31.8833 67.7215 31.65C68.1882 31.3833 68.5882 30.8833 68.9215 30.15C69.2549 29.4167 69.5215 28.4 69.7215 27.1C69.9215 25.8 70.0215 24.1 70.0215 22C70.0215 19.9 69.9215 18.2167 69.7215 16.95C69.5215 15.6833 69.2549 14.7 68.9215 14C68.5882 13.3 68.1882 12.85 67.7215 12.65C67.2882 12.4167 66.8215 12.3 66.3215 12.3C65.8215 12.3 65.3382 12.4167 64.8715 12.65C64.4382 12.85 64.0549 13.3 63.7215 14C63.3882 14.7 63.1215 15.6833 62.9215 16.95C62.7215 18.2167 62.6215 19.9 62.6215 22C62.6215 24.1 62.7215 25.8 62.9215 27.1C63.1215 28.4 63.3882 29.4167 63.7215 30.15C64.0549 30.8833 64.4382 31.3833 64.8715 31.65C65.3382 31.8833 65.8215 32 66.3215 32ZM93.3235 38.6C91.5568 38.6 89.9568 38.25 88.5235 37.55C87.0902 36.8167 85.8402 35.75 84.7735 34.35C83.7402 32.95 82.9402 31.2167 82.3735 29.15C81.8068 27.0833 81.5235 24.7 81.5235 22C81.5235 19.3 81.8068 16.9333 82.3735 14.9C82.9402 12.8333 83.7402 11.1333 84.7735 9.8C85.8402 8.43333 87.0902 7.41667 88.5235 6.75C89.9568 6.05 91.5568 5.7 93.3235 5.7C95.0568 5.7 96.6402 6.05 98.0735 6.75C99.5402 7.41667 100.79 8.43333 101.823 9.8C102.89 11.1667 103.707 12.8667 104.273 14.9C104.84 16.9333 105.123 19.3 105.123 22C105.123 24.7 104.84 27.0833 104.273 29.15C103.707 31.2167 102.89 32.95 101.823 34.35C100.79 35.75 99.5402 36.8167 98.0735 37.55C96.6402 38.25 95.0568 38.6 93.3235 38.6ZM93.3235 32C93.8235 32 94.2902 31.8833 94.7235 31.65C95.1902 31.3833 95.5902 30.8833 95.9235 30.15C96.2568 29.4167 96.5235 28.4 96.7235 27.1C96.9235 25.8 97.0235 24.1 97.0235 22C97.0235 19.9 96.9235 18.2167 96.7235 16.95C96.5235 15.6833 96.2568 14.7 95.9235 14C95.5902 13.3 95.1902 12.85 94.7235 12.65C94.2902 12.4167 93.8235 12.3 93.3235 12.3C92.8235 12.3 92.3402 12.4167 91.8735 12.65C91.4402 12.85 91.0568 13.3 90.7235 14C90.3902 14.7 90.1235 15.6833 89.9235 16.95C89.7235 18.2167 89.6235 19.9 89.6235 22C89.6235 24.1 89.7235 25.8 89.9235 27.1C90.1235 28.4 90.3902 29.4167 90.7235 30.15C91.0568 30.8833 91.4402 31.3833 91.8735 31.65C92.3402 31.8833 92.8235 32 93.3235 32ZM110.825 48.2L109.125 43.7C111.159 43.0333 112.675 42.15 113.675 41.05C114.709 39.95 115.209 38.8 115.175 37.6H114.825C113.525 37.6 112.359 37.2 111.325 36.4C110.325 35.5667 109.825 34.4 109.825 32.9C109.825 31.5 110.325 30.3667 111.325 29.5C112.325 28.6333 113.559 28.2 115.025 28.2C116.892 28.2 118.309 28.8833 119.275 30.25C120.242 31.6167 120.725 33.5333 120.725 36C120.725 38.9667 119.892 41.5167 118.225 43.65C116.559 45.7833 114.092 47.3 110.825 48.2ZM136.341 38.6C134.574 38.6 132.974 38.25 131.541 37.55C130.108 36.8167 128.858 35.75 127.791 34.35C126.758 32.95 125.958 31.2167 125.391 29.15C124.824 27.0833 124.541 24.7 124.541 22C124.541 19.3 124.824 16.9333 125.391 14.9C125.958 12.8333 126.758 11.1333 127.791 9.8C128.858 8.43333 130.108 7.41667 131.541 6.75C132.974 6.05 134.574 5.7 136.341 5.7C138.074 5.7 139.658 6.05 141.091 6.75C142.558 7.41667 143.808 8.43333 144.841 9.8C145.908 11.1667 146.724 12.8667 147.291 14.9C147.858 16.9333 148.141 19.3 148.141 22C148.141 24.7 147.858 27.0833 147.291 29.15C146.724 31.2167 145.908 32.95 144.841 34.35C143.808 35.75 142.558 36.8167 141.091 37.55C139.658 38.25 138.074 38.6 136.341 38.6ZM136.341 32C136.841 32 137.308 31.8833 137.741 31.65C138.208 31.3833 138.608 30.8833 138.941 30.15C139.274 29.4167 139.541 28.4 139.741 27.1C139.941 25.8 140.041 24.1 140.041 22C140.041 19.9 139.941 18.2167 139.741 16.95C139.541 15.6833 139.274 14.7 138.941 14C138.608 13.3 138.208 12.85 137.741 12.65C137.308 12.4167 136.841 12.3 136.341 12.3C135.841 12.3 135.358 12.4167 134.891 12.65C134.458 12.85 134.074 13.3 133.741 14C133.408 14.7 133.141 15.6833 132.941 16.95C132.741 18.2167 132.641 19.9 132.641 22C132.641 24.1 132.741 25.8 132.941 27.1C133.141 28.4 133.408 29.4167 133.741 30.15C134.074 30.8833 134.458 31.3833 134.891 31.65C135.358 31.8833 135.841 32 136.341 32ZM163.343 38.6C161.576 38.6 159.976 38.25 158.543 37.55C157.11 36.8167 155.86 35.75 154.793 34.35C153.76 32.95 152.96 31.2167 152.393 29.15C151.826 27.0833 151.543 24.7 151.543 22C151.543 19.3 151.826 16.9333 152.393 14.9C152.96 12.8333 153.76 11.1333 154.793 9.8C155.86 8.43333 157.11 7.41667 158.543 6.75C159.976 6.05 161.576 5.7 163.343 5.7C165.076 5.7 166.66 6.05 168.093 6.75C169.56 7.41667 170.81 8.43333 171.843 9.8C172.91 11.1667 173.726 12.8667 174.293 14.9C174.86 16.9333 175.143 19.3 175.143 22C175.143 24.7 174.86 27.0833 174.293 29.15C173.726 31.2167 172.91 32.95 171.843 34.35C170.81 35.75 169.56 36.8167 168.093 37.55C166.66 38.25 165.076 38.6 163.343 38.6ZM163.343 32C163.843 32 164.31 31.8833 164.743 31.65C165.21 31.3833 165.61 30.8833 165.943 30.15C166.276 29.4167 166.543 28.4 166.743 27.1C166.943 25.8 167.043 24.1 167.043 22C167.043 19.9 166.943 18.2167 166.743 16.95C166.543 15.6833 166.276 14.7 165.943 14C165.61 13.3 165.21 12.85 164.743 12.65C164.31 12.4167 163.843 12.3 163.343 12.3C162.843 12.3 162.36 12.4167 161.893 12.65C161.46 12.85 161.076 13.3 160.743 14C160.41 14.7 160.143 15.6833 159.943 16.95C159.743 18.2167 159.643 19.9 159.643 22C159.643 24.1 159.743 25.8 159.943 27.1C160.143 28.4 160.41 29.4167 160.743 30.15C161.076 30.8833 161.46 31.3833 161.893 31.65C162.36 31.8833 162.843 32 163.343 32ZM190.345 38.6C188.578 38.6 186.978 38.25 185.545 37.55C184.112 36.8167 182.862 35.75 181.795 34.35C180.762 32.95 179.962 31.2167 179.395 29.15C178.828 27.0833 178.545 24.7 178.545 22C178.545 19.3 178.828 16.9333 179.395 14.9C179.962 12.8333 180.762 11.1333 181.795 9.8C182.862 8.43333 184.112 7.41667 185.545 6.75C186.978 6.05 188.578 5.7 190.345 5.7C192.078 5.7 193.662 6.05 195.095 6.75C196.562 7.41667 197.812 8.43333 198.845 9.8C199.912 11.1667 200.728 12.8667 201.295 14.9C201.862 16.9333 202.145 19.3 202.145 22C202.145 24.7 201.862 27.0833 201.295 29.15C200.728 31.2167 199.912 32.95 198.845 34.35C197.812 35.75 196.562 36.8167 195.095 37.55C193.662 38.25 192.078 38.6 190.345 38.6ZM190.345 32C190.845 32 191.312 31.8833 191.745 31.65C192.212 31.3833 192.612 30.8833 192.945 30.15C193.278 29.4167 193.545 28.4 193.745 27.1C193.945 25.8 194.045 24.1 194.045 22C194.045 19.9 193.945 18.2167 193.745 16.95C193.545 15.6833 193.278 14.7 192.945 14C192.612 13.3 192.212 12.85 191.745 12.65C191.312 12.4167 190.845 12.3 190.345 12.3C189.845 12.3 189.362 12.4167 188.895 12.65C188.462 12.85 188.078 13.3 187.745 14C187.412 14.7 187.145 15.6833 186.945 16.95C186.745 18.2167 186.645 19.9 186.645 22C186.645 24.1 186.745 25.8 186.945 27.1C187.145 28.4 187.412 29.4167 187.745 30.15C188.078 30.8833 188.462 31.3833 188.895 31.65C189.362 31.8833 189.845 32 190.345 32ZM214.247 33.5V24.5H205.547V18.5H214.247V9.5H220.447V18.5H229.147V24.5H220.447V33.5H214.247Z" fill="white"/>
</svg>
